{
  "accessors": [
    {
      "bufferView": 2,
      "componentType": 5126,
      "count": 6342,
      "max": [
        -182.86900329589844,
        5.5036101341247559,
        16.899599075317383
      ],
      "min": [
        -194.71800231933594,
        -5.4963898658752441,
        2.4995999336242676
      ],
      "type": "VEC3"
    },
    {
      "bufferView": 2,
      "byteOffset": 76104,
      "componentType": 5126,
      "count": 6342,
      "max": [
        1,
        1,
        1
      ],
      "min": [
        -1,
        -1,
        -1
      ],
      "type": "VEC3"
    },
    {
      "bufferView": 3,
      "componentType": 5126,
      "count": 6342,
      "max": [
        0,
        0,
        0,
        1
      ],
      "min": [
        0,
        0,
        0,
        1
      ],
      "type": "VEC4"
    },
    {
      "bufferView": 1,
      "componentType": 5126,
      "count": 6342,
      "max": [
        0,
        0
      ],
      "min": [
        0,
        0
      ],
      "type": "VEC2"
    },
    {
      "bufferView": 0,
      "componentType": 5125,
      "count": 21060,
      "max": [
        6341
      ],
      "min": [
        0
      ],
      "type": "SCALAR"
    },
    {
      "bufferView": 2,
      "byteOffset": 152208,
      "componentType": 5126,
      "count": 41835,
      "max": [
        -30.049699783325195,
        118.57900238037109,
        52.725700378417969
      ],
      "min": [
        -120.53600311279297,
        -119.31600189208984,
        20.049200057983398
      ],
      "type": "VEC3"
    },
    {
      "bufferView": 2,
      "byteOffset": 654228,
      "componentType": 5126,
      "count": 41835,
      "max": [
        1,
        0.99999570846557617,
        1
      ],
      "min": [
        -1,
        -0.99999570846557617,
        -1
      ],
      "type": "VEC3"
    },
    {
      "bufferView": 3,
      "byteOffset": 101472,
      "componentType": 5126,
      "count": 41835,
      "max": [
        0,
        0,
        0,
        1
      ],
      "min": [
        0,
        0,
        0,
        1
      ],
      "type": "VEC4"
    },
    {
      "bufferView": 1,
      "byteOffset": 50736,
      "componentType": 5126,
      "count": 41835,
      "max": [
        0,
        0
      ],
      "min": [
        0,
        0
      ],
      "type": "VEC2"
    },
    {
      "bufferView": 0,
      "byteOffset": 84240,
      "componentType": 5125,
      "count": 141678,
      "max": [
        41834
      ],
      "min": [
        0
      ],
      "type": "SCALAR"
    },
    {
      "bufferView": 2,
      "byteOffset": 1156248,
      "componentType": 5126,
      "count": 41878,
      "max": [
        -39.750198364257812,
        74.603897094726562,
        58.007801055908203
      ],
      "min": [
        -130.23699951171875,
        -75.233802795410156,
        21.654899597167969
      ],
      "type": "VEC3"
    },
    {
      "bufferView": 2,
      "byteOffset": 1658784,
      "componentType": 5126,
      "count": 41878,
      "max": [
        1,
        0.99999570846557617,
        1
      ],
      "min": [
        -1,
        -0.9999956488609314,
        -1
      ],
      "type": "VEC3"
    },
    {
      "bufferView": 3,
      "byteOffset": 770832,
      "componentType": 5126,
      "count": 41878,
      "max": [
        0,
        0,
        0,
        1
      ],
      "min": [
        0,
        0,
        0,
        1
      ],
      "type": "VEC4"
    },
    {
      "bufferView": 1,
      "byteOffset": 385416,
      "componentType": 5126,
      "count": 41878,
      "max": [
        0,
        0
      ],
      "min": [
        0,
        0
      ],
      "type": "VEC2"
    },
    {
      "bufferView": 0,
      "byteOffset": 650952,
      "componentType": 5125,
      "count": 141822,
      "max": [
        41877
      ],
      "min": [
        0
      ],
      "type": "SCALAR"
    },
    {
      "bufferView": 2,
      "byteOffset": 2161320,
      "componentType": 5126,
      "count": 242,
      "max": [
        -187.83599853515625,
        19.798500061035156,
        48.719699859619141
      ],
      "min": [
        -206.76699829101562,
        -19.798500061035156,
        41.492500305175781
      ],
      "type": "VEC3"
    },
    {
      "bufferView": 2,
      "byteOffset": 2164224,
      "componentType": 5126,
      "count": 242,
      "max": [
        -0.36924955248832703,
        0.87210315465927124,
        0.75425463914871216
      ],
      "min": [
        -0.96257126331329346,
        -0.87210315465927124,
        0.25806981325149536
      ],
      "type": "VEC3"
    },
    {
      "bufferView": 3,
      "byteOffset": 1440880,
      "componentType": 5126,
      "count": 242,
      "max": [
        0,
        0,
        0,
        1
      ],
      "min": [
        0,
        0,
        0,
        1
      ],
      "type": "VEC4"
    },
    {
      "bufferView": 1,
      "byteOffset": 720440,
      "componentType": 5126,
      "count": 242,
      "max": [
        0,
        0
      ],
      "min": [
        0,
        0
      ],
      "type": "VEC2"
    },
    {
      "bufferView": 0,
      "byteOffset": 1218240,
      "componentType": 5125,
      "count": 822,
      "max": [
        241
      ],
      "min": [
        0
      ],
      "type": "SCALAR"
    },
    {
      "bufferView": 2,
      "byteOffset": 2167128,
      "componentType": 5126,
      "count": 22578,
      "max": [
        217.17100524902344,
        214.64799499511719,
        147.56700134277344
      ],
      "min": [
        -217.17100524902344,
        -214.64799499511719,
        1.2059899568557739
      ],
      "type": "VEC3"
    },
    {
      "bufferView": 2,
      "byteOffset": 2438064,
      "componentType": 5126,
      "count": 22578,
      "max": [
        1,
        1,
        1
      ],
      "min": [
        -1,
        -1,
        -1
      ],
      "type": "VEC3"
    },
    {
      "bufferView": 3,
      "byteOffset": 1444752,
      "componentType": 5126,
      "count": 22578,
      "max": [
        0,
        0,
        0,
        1
      ],
      "min": [
        0,
        0,
        0,
        1
      ],
      "type": "VEC4"
    },
    {
      "bufferView": 1,
      "byteOffset": 722376,
      "componentType": 5126,
      "count": 22578,
      "max": [
        0,
        0
      ],
      "min": [
        0,
        0
      ],
      "type": "VEC2"
    },
    {
      "bufferView": 0,
      "byteOffset": 1221528,
      "componentType": 5125,
      "count": 122343,
      "max": [
        22577
      ],
      "min": [
        0
      ],
      "type": "SCALAR"
    },
    {
      "bufferView": 2,
      "byteOffset": 2709000,
      "componentType": 5126,
      "count": 41408,
      "max": [
        -23.101699829101562,
        36.036098480224609,
        19.999599456787109
      ],
      "min": [
        -57.069400787353516,
        -36.036098480224609,
        2.4995899200439453
      ],
      "type": "VEC3"
    },
    {
      "bufferView": 2,
      "byteOffset": 3205896,
      "componentType": 5126,
      "count": 41408,
      "max": [
        1,
        1,
        1
      ],
      "min": [
        -1,
        -1,
        -1
      ],
      "type": "VEC3"
    },
    {
      "bufferView": 3,
      "byteOffset": 1806000,
      "componentType": 5126,
      "count": 41408,
      "max": [
        0,
        0,
        0,
        1
      ],
      "min": [
        0,
        0,
        0,
        1
      ],
      "type": "VEC4"
    },
    {
      "bufferView": 1,
      "byteOffset": 903000,
      "componentType": 5126,
      "count": 41408,
      "max": [
        0,
        0
      ],
      "min": [
        0,
        0
      ],
      "type": "VEC2"
    },
    {
      "bufferView": 0,
      "byteOffset": 1710900,
      "componentType": 5125,
      "count": 140400,
      "max": [
        41407
      ],
      "min": [
        0
      ],
      "type": "SCALAR"
    },
    {
      "bufferView": 2,
      "byteOffset": 3702792,
      "componentType": 5126,
      "count": 26910,
      "max": [
        -27.349599838256836,
        36.201900482177734,
        9.9991903305053711
      ],
      "min": [
        -194.32499694824219,
        -36.719001770019531,
        7.8562698035966605e-07
      ],
      "type": "VEC3"
    },
    {
      "bufferView": 2,
      "byteOffset": 4025712,
      "componentType": 5126,
      "count": 26910,
      "max": [
        0.99982374906539917,
        0.99995589256286621,
        0.99997138977050781
      ],
      "min": [
        -0.99983096122741699,
        -0.99995565414428711,
        -0.99997138977050781
      ],
      "type": "VEC3"
    },
    {
      "bufferView": 3,
      "byteOffset": 2468528,
      "componentType": 5126,
      "count": 26910,
      "max": [
        0,
        0,
        0,
        1
      ],
      "min": [
        0,
        0,
        0,
        1
      ],
      "type": "VEC4"
    },
    {
      "bufferView": 1,
      "byteOffset": 1234264,
      "componentType": 5126,
      "count": 26910,
      "max": [
        0,
        0
      ],
      "min": [
        0,
        0
      ],
      "type": "VEC2"
    },
    {
      "bufferView": 0,
      "byteOffset": 2272500,
      "componentType": 5125,
      "count": 87024,
      "max": [
        26909
      ],
      "min": [
        0
      ],
      "type": "SCALAR"
    }
  ],
  "asset": {
    "extras": {
      "author": "AnirudhRao (https://sketchfab.com/AnirudhRao)",
      "license": "CC-BY-4.0 (http://creativecommons.org/licenses/by/4.0/)",
      "source": "https://sketchfab.com/models/597e0d7f9e3446719a2f2de3dd3fa67d",
      "title": "C17 Globemaster III"
    },
    "generator": "Sketchfab-3.42.2",
    "version": "2.0"
  },
  "bufferViews": [
    {
      "buffer": 0,
      "byteLength": 2620596,
      "byteOffset": 0,
      "name": "floatBufferViews",
      "target": 34963
    },
    {
      "buffer": 0,
      "byteLength": 1449544,
      "byteOffset": 2620596,
      "byteStride": 8,
      "name": "floatBufferViews",
      "target": 34962
    },
    {
      "buffer": 0,
      "byteLength": 4348632,
      "byteOffset": 4070140,
      "byteStride": 12,
      "name": "floatBufferViews",
      "target": 34962
    },
    {
      "buffer": 0,
      "byteLength": 2899088,
      "byteOffset": 8418772,
      "byteStride": 16,
      "name": "floatBufferViews",
      "target": 34962
    }
  ],
  "buffers": [
    {
      "byteLength": 11317860,
      "uri": "scene.bin"
    }
  ],
  "images": [
    {
      "uri": "textures/Part1.1.1_ReferenceRepcolor128128128_baseColor.jpeg"
    },
    {
      "uri": "textures/Part1.1.2_ReferenceRepcolor128128128_baseColor.jpeg"
    },
    {
      "uri": "textures/Part1.2.3_ReferenceRepcolor128128128_baseColor.jpeg"
    }
  ],
  "materials": [
    {
      "doubleSided": true,
      "name": "NoseGear_ReferenceRepcolor128128128",
      "pbrMetallicRoughness": {
        "baseColorFactor": [
          0.69940240549999999,
          0.67181505429999999,
          0.67181505429999999,
          1
        ],
        "metallicFactor": 0,
        "roughnessFactor": 0.59999999999999998
      }
    },
    {
      "doubleSided": true,
      "name": "Part1.1.1_ReferenceRepcolor128128128",
      "pbrMetallicRoughness": {
        "baseColorFactor": [
          0.27610518290000002,
          0.27610518290000002,
          0.27610518290000002,
          1
        ],
        "baseColorTexture": {
          "index": 0,
          "texCoord": 0
        },
        "metallicFactor": 0,
        "roughnessFactor": 0.59999999999999998
      }
    },
    {
      "doubleSided": true,
      "name": "Part1.1.2_ReferenceRepcolor128128128",
      "pbrMetallicRoughness": {
        "baseColorFactor": [
          0.30659298779999999,
          0.30659298779999999,
          0.30659298779999999,
          1
        ],
        "baseColorTexture": {
          "index": 1,
          "texCoord": 0
        },
        "metallicFactor": 0,
        "roughnessFactor": 0.59999999999999998
      }
    },
    {
      "alphaMode": "BLEND",
      "doubleSided": true,
      "name": "Part1.1_ReferenceRepcolor128128128",
      "pbrMetallicRoughness": {
        "baseColorFactor": [
          0.25276952930000002,
          0.2313968049,
          0.2313968049,
          0.61756859760000005
        ],
        "metallicFactor": 0,
        "roughnessFactor": 0.59999999999999998
      }
    },
    {
      "doubleSided": true,
      "name": "Part1.2.3_ReferenceRepcolor128128128",
      "pbrMetallicRoughness": {
        "baseColorFactor": [
          0.14195884149999999,
          0.14195884149999999,
          0.14195884149999999,
          1
        ],
        "baseColorTexture": {
          "index": 2,
          "texCoord": 0
        },
        "metallicFactor": 0,
        "roughnessFactor": 0.59999999999999998
      }
    },
    {
      "doubleSided": true,
      "name": "Part1.2.4_ReferenceRepcolor128128128",
      "pbrMetallicRoughness": {
        "baseColorFactor": [
          1,
          1,
          1,
          1
        ],
        "metallicFactor": 0,
        "roughnessFactor": 0.59999999999999998
      }
    },
    {
      "doubleSided": true,
      "name": "Part2_ReferenceRepcolor128128128",
      "pbrMetallicRoughness": {
        "baseColorFactor": [
          0.015876293499999999,
          0.015876293499999999,
          0.015876293499999999,
          1
        ],
        "metallicFactor": 0,
        "roughnessFactor": 0.59999999999999998
      }
    }
  ],
  "meshes": [
    {
      "primitives": [
        {
          "attributes": {
            "NORMAL": 1,
            "POSITION": 0,
            "TANGENT": 2,
            "TEXCOORD_0": 3
          },
          "indices": 4,
          "material": 0,
          "mode": 4
        }
      ]
    },
    {
      "primitives": [
        {
          "attributes": {
            "NORMAL": 6,
            "POSITION": 5,
            "TANGENT": 7,
            "TEXCOORD_0": 8
          },
          "indices": 9,
          "material": 1,
          "mode": 4
        }
      ]
    },
    {
      "primitives": [
        {
          "attributes": {
            "NORMAL": 11,
            "POSITION": 10,
            "TANGENT": 12,
            "TEXCOORD_0": 13
          },
          "indices": 14,
          "material": 2,
          "mode": 4
        }
      ]
    },
    {
      "primitives": [
        {
          "attributes": {
            "NORMAL": 16,
            "POSITION": 15,
            "TANGENT": 17,
            "TEXCOORD_0": 18
          },
          "indices": 19,
          "material": 3,
          "mode": 4
        }
      ]
    },
    {
      "primitives": [
        {
          "attributes": {
            "NORMAL": 21,
            "POSITION": 20,
            "TANGENT": 22,
            "TEXCOORD_0": 23
          },
          "indices": 24,
          "material": 4,
          "mode": 4
        }
      ]
    },
    {
      "primitives": [
        {
          "attributes": {
            "NORMAL": 26,
            "POSITION": 25,
            "TANGENT": 27,
            "TEXCOORD_0": 28
          },
          "indices": 29,
          "material": 5,
          "mode": 4
        }
      ]
    },
    {
      "primitives": [
        {
          "attributes": {
            "NORMAL": 31,
            "POSITION": 30,
            "TANGENT": 32,
            "TEXCOORD_0": 33
          },
          "indices": 34,
          "material": 6,
          "mode": 4
        }
      ]
    }
  ],
  "nodes": [
    {
      "children": [
        1
      ],
      "name": "RootNode (gltf orientation matrix)",
      "rotation": [
        -0.70710678118654746,
        -0,
        -0,
        0.70710678118654757
      ]
    },
    {
      "children": [
        2
      ],
      "name": "RootNode (model correction matrix)"
    },
    {
      "children": [
        3,
        4,
        5,
        6,
        7,
        8,
        9
      ],
      "name": "C17.obj.cleaner.materialmerger.gles"
    },
    {
      "mesh": 0,
      "name": ""
    },
    {
      "mesh": 1,
      "name": ""
    },
    {
      "mesh": 2,
      "name": ""
    },
    {
      "mesh": 3,
      "name": ""
    },
    {
      "mesh": 4,
      "name": ""
    },
    {
      "mesh": 5,
      "name": ""
    },
    {
      "mesh": 6,
      "name": ""
    }
  ],
  "samplers": [
    {
      "magFilter": 9729,
      "minFilter": 9987,
      "wrapS": 33648,
      "wrapT": 33648
    },
    {
      "magFilter": 9729,
      "minFilter": 9987,
      "wrapS": 10497,
      "wrapT": 10497
    }
  ],
  "scene": 0,
  "scenes": [
    {
      "name": "OSG_Scene",
      "nodes": [
        0
      ]
    }
  ],
  "textures": [
    {
      "sampler": 0,
      "source": 0
    },
    {
      "sampler": 0,
      "source": 1
    },
    {
      "sampler": 1,
      "source": 2
    }
  ]
}

